<svg xmlns="http://www.w3.org/2000/svg" class="svg-sprite">
    <symbol id="account-icon" viewBox="0 0 40 40">
        <path fill="#fff" d="M20 0C8.96 0 0 8.96 0 20s8.96 20 20 20 20-8.96 20-20S31.04 0 20 0Zm0 6c3.32 0 6 2.68 6 6s-2.68 6-6 6-6-2.68-6-6 2.68-6 6-6Zm0 28.4c-5 0-9.42-2.56-12-6.44.06-3.98 8-6.16 12-6.16 3.98 0 11.94 2.18 12 6.16-2.58 3.88-7 6.44-12 6.44Z"/>
    </symbol>
    <symbol id="night-icon" viewBox="0 0 30 30">
        <path fill="#fff" d="M25.61 10.61V4.39h-6.22L15 0l-4.39 4.39H4.39v6.22L0 15l4.39 4.39v6.22h6.22L15 30l4.39-4.39h6.22v-6.22L30 15l-4.39-4.39ZM15 22.958a7.924 7.924 0 0 1-3.316-.73c2.732-1.26 4.642-4.018 4.642-7.228s-1.91-5.968-4.642-7.228A7.924 7.924 0 0 1 15 7.042c4.39 0 7.958 3.568 7.958 7.958 0 4.39-3.568 7.958-7.958 7.958Z"/>
    </symbol>
    <symbol id="logo" viewBox="0 0 205 40">
        <path fill="#3077C6" d="M.84 11.024c-.206-.33-.397-.78-.574-1.35A6.033 6.033 0 0 1 0 7.874c0-1.17.25-2.01.752-2.52.532-.51 1.21-.765 2.036-.765h19.297c.207.33.398.78.575 1.35.177.57.266 1.17.266 1.8 0 1.17-.266 2.01-.797 2.52-.501.51-1.165.765-1.991.765h-4.913V31.81c-.325.09-.84.18-1.55.27-.678.09-1.356.135-2.035.135s-1.284-.06-1.815-.18c-.501-.09-.929-.27-1.283-.54-.354-.27-.62-.645-.797-1.125-.177-.48-.265-1.11-.265-1.89V11.024H.84ZM31.85 31.946c-.295.09-.768.18-1.417.27-.62.09-1.268.135-1.947.135-.65 0-1.24-.045-1.77-.135-.502-.09-.93-.27-1.284-.54a2.792 2.792 0 0 1-.84-1.08c-.178-.48-.266-1.095-.266-1.845V15.253c0-.69.118-1.275.354-1.755a4.35 4.35 0 0 1 1.106-1.35c.472-.39 1.048-.734 1.726-1.034a16.838 16.838 0 0 1 4.736-1.395c.856-.15 1.711-.225 2.567-.225 1.416 0 2.538.285 3.364.855.826.54 1.239 1.44 1.239 2.7 0 .42-.06.84-.177 1.26-.118.39-.266.75-.443 1.08a20.679 20.679 0 0 0-3.806.359c-.62.12-1.21.255-1.77.405a6.74 6.74 0 0 0-1.372.45v15.343ZM42.345 4.05c0-1.14.369-2.1 1.106-2.88.767-.78 1.77-1.17 3.01-1.17 1.24 0 2.228.39 2.965 1.17.767.78 1.151 1.74 1.151 2.88s-.384 2.1-1.15 2.88c-.738.779-1.727 1.169-2.966 1.169-1.24 0-2.242-.39-3.01-1.17-.737-.78-1.106-1.74-1.106-2.88Zm7.878 27.896c-.325.06-.812.135-1.46.225-.62.12-1.255.18-1.904.18s-1.239-.045-1.77-.135c-.502-.09-.93-.27-1.284-.54a2.79 2.79 0 0 1-.84-1.08c-.178-.48-.266-1.095-.266-1.845V10.44c.325-.06.797-.135 1.416-.225.65-.12 1.298-.18 1.948-.18.649 0 1.224.045 1.726.135.53.09.973.27 1.327.54.355.27.62.645.797 1.125.207.45.31 1.05.31 1.8v18.312ZM64.882 9.449c1.77 0 3.408.24 4.913.72 1.535.45 2.848 1.155 3.94 2.114 1.091.96 1.947 2.175 2.566 3.645.62 1.44.93 3.165.93 5.174 0 1.92-.266 3.6-.797 5.04s-1.283 2.654-2.257 3.644c-.974.96-2.154 1.68-3.54 2.16-1.358.48-2.878.72-4.56.72-1.268 0-2.448-.195-3.54-.585v7.47c-.295.089-.767.179-1.416.269-.65.12-1.314.18-1.992.18-.65 0-1.24-.045-1.77-.135-.502-.09-.93-.27-1.284-.54s-.62-.645-.797-1.125c-.177-.45-.265-1.05-.265-1.8V14.803c0-.81.162-1.47.487-1.98.354-.51.826-.975 1.416-1.394.915-.6 2.05-1.08 3.408-1.44 1.357-.36 2.877-.54 4.558-.54Zm.09 17.188c3.038 0 4.558-1.845 4.558-5.535 0-1.92-.384-3.344-1.151-4.274-.738-.93-1.815-1.395-3.23-1.395-.561 0-1.063.075-1.506.225a5.15 5.15 0 0 0-1.15.45v9.899c.354.18.737.33 1.15.45.413.12.856.18 1.328.18ZM105.466 31.811c-.325.09-.841.18-1.549.27-.679.09-1.357.135-2.036.135a8.28 8.28 0 0 1-1.815-.18 2.936 2.936 0 0 1-1.283-.54c-.354-.27-.62-.645-.797-1.125-.177-.48-.265-1.11-.265-1.89v-7.019h-8.498v10.349c-.325.09-.84.18-1.549.27-.679.09-1.357.135-2.036.135-.678 0-1.283-.06-1.815-.18-.501-.09-.929-.27-1.283-.54-.354-.27-.62-.645-.797-1.125-.177-.48-.265-1.11-.265-1.89V4.724c.324-.06.84-.135 1.549-.225.708-.12 1.387-.18 2.036-.18.678 0 1.269.06 1.77.18.531.09.974.27 1.328.54.354.27.62.645.796 1.125.178.48.266 1.11.266 1.89v7.2h8.498V4.723c.324-.06.84-.135 1.549-.225.708-.12 1.387-.18 2.036-.18.678 0 1.268.06 1.77.18.531.09.974.27 1.328.54.354.27.619.645.796 1.125.177.48.266 1.11.266 1.89v23.757ZM132.901 21.057c0 1.86-.28 3.525-.841 4.995-.561 1.44-1.357 2.654-2.39 3.644-1.003.99-2.213 1.74-3.629 2.25-1.417.51-2.995.765-4.736.765-1.741 0-3.319-.27-4.736-.81-1.416-.54-2.64-1.305-3.673-2.295-1.003-1.02-1.785-2.25-2.346-3.69-.56-1.44-.841-3.059-.841-4.859 0-1.77.281-3.374.841-4.814.561-1.44 1.343-2.655 2.346-3.645a10.468 10.468 0 0 1 3.673-2.34c1.417-.54 2.995-.81 4.736-.81 1.741 0 3.319.286 4.736.856 1.416.54 2.626 1.32 3.629 2.34 1.033.99 1.829 2.204 2.39 3.644.561 1.44.841 3.03.841 4.77Zm-15.491 0c0 1.83.34 3.24 1.018 4.23.708.96 1.682 1.44 2.921 1.44 1.24 0 2.184-.495 2.833-1.485.679-.99 1.018-2.385 1.018-4.185 0-1.8-.339-3.18-1.018-4.14-.679-.989-1.638-1.484-2.877-1.484-1.239 0-2.198.495-2.877 1.485-.678.96-1.018 2.34-1.018 4.14ZM136.572 10.439c.295-.09.752-.18 1.372-.27.649-.09 1.313-.135 1.991-.135.649 0 1.225.045 1.726.135.531.09.974.27 1.328.54.354.27.62.645.797 1.125.206.45.31 1.05.31 1.8v9.673c0 1.23.295 2.115.885 2.655.59.51 1.445.765 2.567.765.678 0 1.224-.06 1.637-.18.443-.12.782-.24 1.018-.36V10.439c.295-.09.753-.18 1.372-.27.649-.09 1.313-.135 1.992-.135.649 0 1.224.045 1.726.135.531.09.974.27 1.328.54.354.27.619.645.796 1.125.207.45.31 1.05.31 1.8v13.678c0 1.5-.619 2.624-1.859 3.374-1.032.66-2.272 1.155-3.717 1.485-1.417.36-2.966.54-4.648.54-1.593 0-3.068-.18-4.425-.54-1.328-.36-2.479-.915-3.453-1.665-.973-.75-1.726-1.71-2.257-2.88-.531-1.2-.796-2.64-.796-4.319V10.44ZM180.478 25.467c0 2.28-.841 4.064-2.523 5.354-1.682 1.29-4.161 1.935-7.436 1.935-1.239 0-2.39-.09-3.452-.27-1.062-.18-1.977-.45-2.744-.81-.737-.39-1.328-.87-1.77-1.44-.413-.57-.62-1.245-.62-2.024 0-.72.148-1.32.443-1.8.295-.51.649-.93 1.062-1.26.856.48 1.829.915 2.921 1.305 1.121.36 2.405.54 3.851.54.914 0 1.608-.135 2.08-.405.501-.27.752-.63.752-1.08 0-.42-.177-.75-.531-.99-.354-.24-.944-.435-1.77-.585l-1.328-.27c-2.567-.51-4.485-1.305-5.754-2.385-1.239-1.11-1.859-2.684-1.859-4.724 0-1.11.236-2.115.709-3.015a6.286 6.286 0 0 1 1.991-2.25c.856-.6 1.874-1.064 3.054-1.394 1.21-.33 2.538-.495 3.983-.495 1.092 0 2.11.09 3.054.27.974.15 1.815.39 2.523.72.708.33 1.269.765 1.682 1.304.413.51.619 1.125.619 1.845 0 .69-.132 1.29-.398 1.8-.236.48-.546.885-.929 1.215-.236-.15-.591-.3-1.063-.45-.472-.18-.988-.33-1.549-.45-.56-.15-1.136-.27-1.726-.36a9.82 9.82 0 0 0-1.549-.135c-.974 0-1.726.12-2.257.36-.531.21-.797.555-.797 1.035 0 .33.148.6.443.81.295.21.856.405 1.682.585l1.372.315c2.832.66 4.839 1.575 6.019 2.744 1.21 1.14 1.815 2.625 1.815 4.455ZM195.706 32.71c-1.741 0-3.364-.24-4.869-.719a11.498 11.498 0 0 1-3.895-2.25c-1.091-.99-1.962-2.234-2.611-3.734-.619-1.5-.929-3.255-.929-5.265 0-1.98.31-3.674.929-5.084.649-1.44 1.49-2.61 2.523-3.51a9.525 9.525 0 0 1 3.541-2.024 12.601 12.601 0 0 1 4.071-.675c1.564 0 2.981.24 4.249.72 1.299.48 2.405 1.14 3.32 1.98a8.426 8.426 0 0 1 2.168 3.014c.531 1.17.797 2.445.797 3.825 0 1.02-.28 1.8-.841 2.34-.561.54-1.342.884-2.346 1.034l-10.932 1.665c.325.99.989 1.74 1.992 2.25 1.003.48 2.154.72 3.452.72 1.21 0 2.346-.15 3.408-.45 1.092-.33 1.977-.705 2.656-1.125.472.3.87.72 1.195 1.26.324.54.487 1.11.487 1.71 0 1.35-.62 2.354-1.859 3.014-.944.51-2.007.855-3.187 1.035-1.18.18-2.287.27-3.319.27Zm-1.24-17.682c-.708 0-1.327.12-1.858.36-.502.24-.915.555-1.24.945-.324.36-.575.78-.752 1.26-.148.45-.236.915-.266 1.395l7.569-1.26c-.089-.6-.413-1.2-.974-1.8-.561-.6-1.387-.9-2.479-.9Z"/>
    </symbol>
    <symbol id="logo-white" viewBox="0 0 98 19">
        <path fill="#fff" d="M.402 5.236a2.781 2.781 0 0 1-.275-.641A2.849 2.849 0 0 1 0 3.74c0-.556.12-.954.36-1.197.254-.242.578-.363.973-.363h9.225c.098.157.19.37.275.641.084.27.127.556.127.855 0 .556-.127.955-.381 1.197-.24.242-.557.363-.952.363H7.278v9.874a5.825 5.825 0 0 1-.74.129 7.45 7.45 0 0 1-.974.064 3.98 3.98 0 0 1-.867-.086 1.407 1.407 0 0 1-.614-.256 1.154 1.154 0 0 1-.38-.535c-.085-.228-.127-.527-.127-.897V5.236H.402ZM15.226 15.174a4.883 4.883 0 0 1-.677.129 6.522 6.522 0 0 1-.931.064c-.31 0-.593-.022-.847-.064a1.408 1.408 0 0 1-.613-.257c-.17-.128-.303-.3-.402-.513-.085-.228-.127-.52-.127-.876V7.245c0-.327.056-.605.17-.833a2.07 2.07 0 0 1 .528-.641c.226-.186.5-.35.825-.492a8.075 8.075 0 0 1 2.264-.663 7.14 7.14 0 0 1 1.227-.106c.677 0 1.213.135 1.608.406.395.256.593.684.593 1.282 0 .2-.029.399-.085.598a2.784 2.784 0 0 1-.212.513 9.948 9.948 0 0 0-1.82.171c-.295.057-.577.121-.845.193a3.238 3.238 0 0 0-.656.213v7.288ZM20.243 1.924c0-.542.176-.998.529-1.368.367-.37.846-.556 1.439-.556.592 0 1.065.185 1.417.556.367.37.55.826.55 1.368 0 .54-.183.997-.55 1.367-.352.37-.825.556-1.417.556-.593 0-1.072-.185-1.44-.556-.352-.37-.528-.826-.528-1.367Zm3.766 13.25c-.155.029-.388.065-.698.107-.296.057-.6.086-.91.086-.31 0-.592-.022-.846-.064a1.408 1.408 0 0 1-.614-.257c-.17-.128-.303-.3-.402-.513-.085-.228-.127-.52-.127-.876V4.958c.155-.028.381-.064.677-.106.31-.057.62-.086.931-.086.31 0 .585.021.825.064.254.043.466.128.635.257.17.128.296.306.38.534.1.214.149.499.149.855v8.698ZM31.017 4.488c.846 0 1.63.114 2.348.342.734.214 1.362.549 1.884 1.005.521.456.93 1.033 1.227 1.73.296.685.444 1.504.444 2.459 0 .912-.127 1.71-.38 2.393a4.794 4.794 0 0 1-1.08 1.732 4.447 4.447 0 0 1-1.693 1.025c-.648.228-1.375.342-2.179.342-.606 0-1.17-.092-1.692-.277v3.547a4.87 4.87 0 0 1-.677.128 5.26 5.26 0 0 1-.953.086c-.31 0-.592-.021-.846-.064a1.41 1.41 0 0 1-.613-.257 1.154 1.154 0 0 1-.381-.534c-.085-.214-.127-.499-.127-.855V7.032c0-.385.077-.699.233-.94.169-.243.395-.464.677-.663.437-.285.98-.513 1.629-.684.649-.171 1.375-.257 2.179-.257Zm.042 8.164c1.453 0 2.18-.876 2.18-2.628 0-.912-.184-1.589-.55-2.03-.353-.442-.868-.663-1.545-.663-.268 0-.508.035-.72.107a2.472 2.472 0 0 0-.55.213v4.702c.17.086.353.157.55.214.198.057.41.085.635.085ZM50.418 15.11a5.827 5.827 0 0 1-.74.129 7.451 7.451 0 0 1-.974.064 3.98 3.98 0 0 1-.867-.086 1.406 1.406 0 0 1-.614-.256 1.154 1.154 0 0 1-.38-.535c-.085-.228-.128-.527-.128-.897v-3.334h-4.062v4.915a5.827 5.827 0 0 1-.74.129 7.452 7.452 0 0 1-.974.064 3.98 3.98 0 0 1-.867-.086 1.406 1.406 0 0 1-.614-.256 1.153 1.153 0 0 1-.38-.535c-.085-.228-.128-.527-.128-.897V2.244c.155-.028.402-.064.74-.107.34-.057.664-.085.974-.085.325 0 .607.028.846.085.254.043.466.128.635.257.17.128.296.306.381.534.085.228.127.527.127.898v3.42h4.062V2.243c.155-.028.402-.064.74-.107.34-.057.664-.085.974-.085.325 0 .607.028.846.085.254.043.466.128.635.257.17.128.296.306.381.534.085.228.127.527.127.898V15.11ZM63.533 10.002c0 .884-.134 1.674-.402 2.373a4.74 4.74 0 0 1-1.142 1.73c-.48.47-1.058.827-1.735 1.07-.677.242-1.432.363-2.264.363-.833 0-1.587-.129-2.264-.385a5.168 5.168 0 0 1-1.756-1.09 5.101 5.101 0 0 1-1.122-1.753c-.268-.684-.402-1.453-.402-2.308 0-.84.134-1.603.402-2.287a4.88 4.88 0 0 1 1.122-1.73 5.006 5.006 0 0 1 1.756-1.112c.677-.257 1.431-.385 2.264-.385.832 0 1.587.136 2.264.406a4.796 4.796 0 0 1 1.735 1.112 4.74 4.74 0 0 1 1.142 1.73c.268.685.402 1.44.402 2.266Zm-7.405 0c0 .87.162 1.54.486 2.01.339.455.805.683 1.397.683s1.044-.235 1.354-.705c.324-.47.487-1.133.487-1.988s-.163-1.51-.487-1.966c-.324-.47-.783-.705-1.375-.705-.593 0-1.051.235-1.376.705-.324.456-.486 1.111-.486 1.966ZM65.288 4.958a4.86 4.86 0 0 1 .656-.128c.31-.043.627-.064.952-.064.31 0 .585.021.825.064.254.043.465.128.635.257.169.128.296.306.38.534.1.214.149.499.149.855v4.595c0 .584.14 1.004.423 1.26.282.243.691.364 1.227.364a2.909 2.909 0 0 0 1.27-.256v-7.48a4.86 4.86 0 0 1 .655-.129 6.97 6.97 0 0 1 .953-.064c.31 0 .585.021.825.064.254.043.465.128.634.257.17.128.297.306.381.534.099.214.148.499.148.855v6.497c0 .712-.296 1.247-.888 1.603-.494.313-1.086.548-1.778.705a9.062 9.062 0 0 1-2.221.257 8.284 8.284 0 0 1-2.116-.257 4.688 4.688 0 0 1-1.65-.79 3.547 3.547 0 0 1-1.08-1.368c-.253-.57-.38-1.254-.38-2.052V4.958ZM86.277 12.097c0 1.083-.402 1.93-1.206 2.543-.804.613-1.989.92-3.554.92a9.953 9.953 0 0 1-1.65-.13 5.12 5.12 0 0 1-1.313-.384 2.568 2.568 0 0 1-.846-.684 1.587 1.587 0 0 1-.296-.962c0-.341.07-.627.212-.854.14-.243.31-.442.507-.599.41.228.875.435 1.397.62.536.17 1.15.256 1.84.256.438 0 .77-.064.995-.192.24-.128.36-.3.36-.513 0-.2-.085-.356-.254-.47-.17-.114-.452-.207-.847-.278l-.634-.128c-1.228-.242-2.144-.62-2.75-1.133-.593-.527-.89-1.275-.89-2.244 0-.527.113-1.004.339-1.432.226-.427.543-.784.952-1.069.41-.285.896-.505 1.46-.662a7.267 7.267 0 0 1 1.904-.235c.522 0 1.009.043 1.46.128.466.071.868.185 1.206.342.339.157.607.363.804.62.198.242.296.534.296.876 0 .328-.063.613-.19.855a1.8 1.8 0 0 1-.444.577 2.274 2.274 0 0 0-.508-.214 5.065 5.065 0 0 0-.74-.213 7.707 7.707 0 0 0-.826-.171 4.728 4.728 0 0 0-.74-.065c-.466 0-.826.057-1.08.171-.253.1-.38.264-.38.492 0 .157.07.285.211.385.141.1.41.192.804.278l.656.15c1.354.313 2.313.747 2.878 1.303.578.541.867 1.247.867 2.116ZM93.557 15.538a7.663 7.663 0 0 1-2.328-.342 5.5 5.5 0 0 1-1.861-1.069c-.522-.47-.938-1.061-1.249-1.774-.296-.712-.444-1.546-.444-2.5 0-.94.148-1.746.444-2.415.31-.684.713-1.24 1.206-1.667a4.56 4.56 0 0 1 1.693-.962 6.061 6.061 0 0 1 1.946-.32c.748 0 1.425.113 2.032.341.62.228 1.15.542 1.586.94.452.4.797.877 1.037 1.432A4.32 4.32 0 0 1 98 9.02c0 .485-.134.855-.402 1.111-.268.257-.642.42-1.121.492l-5.226.79c.155.471.472.827.952 1.07.48.227 1.03.341 1.65.341.578 0 1.121-.07 1.63-.213.521-.157.944-.335 1.269-.535.225.143.416.342.57.599.156.256.234.527.234.812 0 .641-.296 1.118-.889 1.432-.451.242-.96.406-1.523.491-.565.086-1.094.129-1.587.129Zm-.593-8.4c-.338 0-.634.057-.888.171-.24.114-.438.264-.593.45-.155.17-.275.37-.36.598-.07.213-.112.434-.126.662l3.618-.598c-.043-.285-.198-.57-.466-.855-.268-.285-.663-.428-1.185-.428Z"/>
    </symbol>
    <symbol id="hamburger-menu" viewBox="0 0 24 16">
        <path d="M0 16h24v-2.667H0V16Zm0-6.667h24V6.667H0v2.666ZM0 0v2.667h24V0H0Z" fill="#fff"/>
    </symbol>
    <symbol id="search-icon" viewBox="0 0 16 16">
        <path d="M11.435 10.063h-.723l-.256-.247a5.92 5.92 0 0 0 1.437-3.87 5.946 5.946 0 1 0-5.947 5.947 5.92 5.92 0 0 0 3.87-1.437l.247.256v.723L14.637 16 16 14.637l-4.565-4.574Zm-5.489 0A4.111 4.111 0 0 1 1.83 5.946 4.111 4.111 0 0 1 5.946 1.83a4.111 4.111 0 0 1 4.117 4.116 4.111 4.111 0 0 1-4.117 4.117Z" fill="#BFBFBF"/>
    </symbol>
    <symbol id="headset-icon" viewBox="0 0 100 100">
        <path fill="#3077C6" d="M79.167 58.333V75h-8.334V58.333h8.334Zm-50 0V75H25a4.179 4.179 0 0 1-4.167-4.167v-12.5h8.334ZM50 4.167c-20.708 0-37.5 16.791-37.5 37.5v29.166c0 6.917 5.583 12.5 12.5 12.5h12.5V50H20.833v-8.333C20.833 25.542 33.875 12.5 50 12.5s29.167 13.042 29.167 29.167V50H62.5v33.333h16.667V87.5H50v8.333h25c6.917 0 12.5-5.583 12.5-12.5V41.667c0-20.709-16.792-37.5-37.5-37.5Z"/>
    </symbol>
    <symbol id="forum-icon" viewBox="0 0 100 100">
        <path fill="#3077C6" d="M62.5 16.667v29.166H21.542l-4.875 4.875V16.667H62.5Zm4.167-8.334H12.5A4.179 4.179 0 0 0 8.333 12.5v58.333L25 54.167h41.667A4.179 4.179 0 0 0 70.833 50V12.5a4.179 4.179 0 0 0-4.166-4.167ZM87.5 25h-8.333v37.5H25v8.333A4.179 4.179 0 0 0 29.167 75H75l16.667 16.667v-62.5A4.179 4.179 0 0 0 87.5 25Z"/>
    </symbol>
    <symbol id="devices-icon" viewBox="0 0 100 100">
        <path fill="#3077C6" d="M16.667 25h75v-8.333h-75c-4.584 0-8.334 3.75-8.334 8.333v45.833H0v12.5h58.333v-12.5H16.667V25Zm79.166 8.333h-25a4.179 4.179 0 0 0-4.166 4.167v41.667a4.179 4.179 0 0 0 4.166 4.166h25A4.179 4.179 0 0 0 100 79.167V37.5a4.179 4.179 0 0 0-4.167-4.167Zm-4.166 37.5H75V41.667h16.667v29.166Z"/>
    </symbol>
    <symbol id="thumb-up-icon" viewBox="0 0 100 100">
        <path fill="#3077C6" d="M87.5 33.333H61.208l3.959-19.041.125-1.334a6.272 6.272 0 0 0-1.834-4.416l-4.416-4.375-27.417 27.458a8.147 8.147 0 0 0-2.458 5.875v41.667c0 4.583 3.75 8.333 8.333 8.333H75a8.277 8.277 0 0 0 7.667-5.083L95.25 53.042A8.232 8.232 0 0 0 95.833 50v-8.333c0-4.584-3.75-8.334-8.333-8.334ZM87.5 50 75 79.167H37.5V37.5l18.083-18.083-4.625 22.25H87.5V50ZM4.167 37.5h16.666v50H4.167v-50Z"/>
    </symbol>
    <symbol id="arrow-icon" viewBox="0 0 9 21">
        <path fill="none" d="M.941 19.823 7.1 11.612a2 2 0 0 0 0-2.4L.941 1" stroke="#383838" stroke-width="2"/>
    </symbol>
    <symbol id="close-icon" viewBox="0 0 26 26">
        <g clip-path="url(#a)"><path d="M26 1.486 24.514 0 13 11.514 1.486 0 0 1.486 11.514 13 0 24.514 1.486 26 13 14.486 24.514 26 26 24.514 14.486 13 26 1.486Z" fill="#BFBFBF"/></g><defs><clipPath id="a"><path fill="#fff" d="M0 0h26v26H0z"/></clipPath></defs>
    </symbol>
    <symbol id="user-icon" viewBox="0 0 86 86">
        <circle cx="43" cy="43" r="43" fill="#fff"/><path d="M46.652 55.748c0-2.056.511-4.03 1.473-5.79a54.137 54.137 0 0 0-2.782-1.472.362.362 0 0 1-.205-.338v-8.08a3.776 3.776 0 0 0 1.688-3.141v-8.378A7.55 7.55 0 0 0 39.276 21h-1.8a7.55 7.55 0 0 0-7.549 7.55v8.377c0 1.31.675 2.465 1.688 3.14v8.081a.38.38 0 0 1-.205.338c-1.155.562-6.75 3.386-11.937 7.651A4.04 4.04 0 0 0 18 59.277v5.739h32.979a10.52 10.52 0 0 1-.788-.726 12.01 12.01 0 0 1-3.54-8.542Z" fill="#3077C6"/><path d="M58.732 46.48c-5.114 0-9.267 4.154-9.267 9.268 0 5.115 4.153 9.268 9.267 9.268 5.115 0 9.268-4.153 9.268-9.268a9.266 9.266 0 0 0-9.268-9.267ZM64.154 57.1h-4.071v4.07h-2.7V57.1H53.31v-2.701h4.071v-4.071h2.7v4.071h4.072v2.7Z" fill="#3077C6"/>
    </symbol>
    <symbol id="logo-square" viewBox="0 0 58 58">
        <rect width="58" height="58" rx="4" fill="#3077C6"/><path d="M2.586 26.61a1.586 1.586 0 0 1-.15-.36 1.644 1.644 0 0 1-.069-.48c0-.311.065-.535.196-.67a.723.723 0 0 1 .529-.204h5.014c.053.088.103.207.15.36.045.151.068.31.068.479 0 .311-.069.535-.207.67a.684.684 0 0 1-.517.204H6.323v5.537a3.063 3.063 0 0 1-.402.072 3.918 3.918 0 0 1-.53.035c-.176 0-.333-.016-.47-.047a.753.753 0 0 1-.334-.144.647.647 0 0 1-.207-.3 1.518 1.518 0 0 1-.07-.503v-4.65H2.587ZM10.643 32.182a2.57 2.57 0 0 1-.368.072 3.43 3.43 0 0 1-.506.035c-.169 0-.322-.011-.46-.035a.753.753 0 0 1-.334-.144.741.741 0 0 1-.218-.288 1.473 1.473 0 0 1-.07-.491v-3.595c0-.184.032-.34.093-.468.069-.135.165-.255.287-.359.123-.104.273-.196.449-.276a4.304 4.304 0 0 1 1.23-.371c.223-.04.445-.06.667-.06.368 0 .66.076.874.228.215.143.322.383.322.719 0 .111-.015.223-.046.335-.03.104-.069.2-.115.288a5.27 5.27 0 0 0-1.449.204 1.721 1.721 0 0 0-.356.12v4.086ZM13.37 24.752c0-.304.096-.56.287-.767.2-.208.46-.311.782-.311s.58.103.77.311c.2.208.3.463.3.767s-.1.56-.3.767c-.19.208-.448.312-.77.312s-.582-.104-.782-.312a1.088 1.088 0 0 1-.287-.767Zm2.047 7.43c-.085.016-.211.035-.38.06a2.696 2.696 0 0 1-.954.012.754.754 0 0 1-.334-.144.742.742 0 0 1-.218-.288 1.473 1.473 0 0 1-.07-.491v-4.877c.085-.016.208-.036.369-.06a2.717 2.717 0 0 1 .954-.012.762.762 0 0 1 .345.143.647.647 0 0 1 .207.3c.054.12.08.28.08.48v4.877ZM19.226 26.19c.46 0 .885.064 1.276.192.399.12.74.307 1.024.563.283.256.506.58.667.97.16.384.241.843.241 1.379 0 .51-.069.958-.207 1.342a2.7 2.7 0 0 1-.586.97c-.253.256-.56.448-.92.576a3.458 3.458 0 0 1-1.185.191c-.33 0-.636-.052-.92-.155v1.989c-.076.024-.199.048-.368.072a2.78 2.78 0 0 1-.517.048c-.169 0-.322-.012-.46-.036a.752.752 0 0 1-.334-.144.647.647 0 0 1-.207-.3 1.368 1.368 0 0 1-.069-.48v-5.751c0-.216.042-.392.127-.527.092-.136.215-.26.368-.372.238-.16.533-.287.885-.383a4.515 4.515 0 0 1 1.185-.144Zm.023 4.578c.79 0 1.184-.492 1.184-1.474 0-.512-.1-.891-.299-1.139-.191-.247-.471-.371-.84-.371-.145 0-.275.02-.39.06a1.318 1.318 0 0 0-.3.12V30.6c.093.048.193.088.3.12.107.032.222.048.345.048ZM29.77 32.146a3.062 3.062 0 0 1-.402.072 3.917 3.917 0 0 1-.529.035c-.176 0-.333-.016-.471-.047a.753.753 0 0 1-.334-.144.647.647 0 0 1-.207-.3 1.518 1.518 0 0 1-.069-.503v-1.87H25.55v2.757a3.062 3.062 0 0 1-.402.072 3.917 3.917 0 0 1-.53.035c-.176 0-.333-.016-.47-.047a.754.754 0 0 1-.334-.144.647.647 0 0 1-.207-.3 1.52 1.52 0 0 1-.07-.503v-6.327c.085-.016.22-.036.403-.06a3.1 3.1 0 0 1 .53-.048c.176 0 .329.016.46.048a.762.762 0 0 1 .344.144.647.647 0 0 1 .207.3c.046.127.07.295.07.503v1.917h2.207v-2.804a7.86 7.86 0 0 1 .403-.06c.184-.032.36-.048.529-.048.176 0 .33.016.46.048a.762.762 0 0 1 .345.144.647.647 0 0 1 .207.3c.046.127.069.295.069.503v6.327ZM36.899 29.282c0 .495-.073.938-.218 1.33a2.665 2.665 0 0 1-.621.97c-.261.264-.575.464-.943.6a3.533 3.533 0 0 1-1.23.203c-.453 0-.863-.072-1.231-.215a2.798 2.798 0 0 1-.955-.612c-.26-.271-.464-.599-.61-.982a3.62 3.62 0 0 1-.218-1.294c0-.472.073-.9.219-1.282.145-.384.349-.708.61-.971.267-.272.586-.48.954-.623a3.356 3.356 0 0 1 1.23-.216c.452 0 .863.076 1.23.228a2.6 2.6 0 0 1 .944.623c.268.263.475.587.62.97.146.384.219.807.219 1.27Zm-4.025 0c0 .487.088.862.265 1.126a.884.884 0 0 0 .759.383.82.82 0 0 0 .736-.395c.176-.264.264-.635.264-1.114 0-.48-.088-.847-.264-1.103a.848.848 0 0 0-.748-.395.848.848 0 0 0-.747.395c-.177.256-.265.623-.265 1.103ZM37.853 26.454c.076-.024.195-.048.356-.072.169-.024.341-.036.518-.036.168 0 .318.012.448.036a.762.762 0 0 1 .345.143.647.647 0 0 1 .207.3c.054.12.08.28.08.48v2.576c0 .327.077.563.23.707.154.136.376.203.668.203a1.534 1.534 0 0 0 .69-.143v-4.194c.076-.024.195-.048.356-.072.169-.024.341-.036.518-.036.168 0 .318.012.448.036a.762.762 0 0 1 .345.143.647.647 0 0 1 .207.3c.054.12.08.28.08.48v3.642c0 .4-.16.7-.482.9-.269.175-.59.307-.966.395-.368.095-.77.143-1.208.143-.414 0-.797-.048-1.15-.143a2.517 2.517 0 0 1-.897-.444 1.98 1.98 0 0 1-.586-.767c-.138-.32-.207-.703-.207-1.15v-3.427ZM49.26 30.456c0 .607-.218 1.082-.655 1.426-.437.343-1.08.515-1.931.515-.322 0-.621-.024-.898-.072a2.717 2.717 0 0 1-.713-.215 1.407 1.407 0 0 1-.46-.384.91.91 0 0 1-.16-.539c0-.192.038-.352.114-.48.077-.135.17-.247.276-.335.223.128.476.244.76.348.29.096.624.143 1 .143.238 0 .418-.035.54-.107.13-.072.196-.168.196-.288 0-.112-.046-.2-.138-.264-.092-.064-.245-.116-.46-.155l-.345-.072c-.667-.136-1.165-.348-1.495-.635-.322-.296-.483-.715-.483-1.259 0-.295.061-.563.184-.802.123-.24.295-.44.517-.6.223-.16.487-.283.794-.371.314-.088.66-.132 1.035-.132.284 0 .548.024.793.072.253.04.472.104.656.192.184.087.33.203.437.347.107.136.16.3.16.491a1.046 1.046 0 0 1-.344.803 1.22 1.22 0 0 0-.276-.12 2.685 2.685 0 0 0-.402-.12 4.071 4.071 0 0 0-.449-.095 2.49 2.49 0 0 0-.402-.036c-.253 0-.449.032-.587.096-.138.056-.207.148-.207.275 0 .088.038.16.115.216.077.056.222.108.437.156l.356.084c.736.175 1.258.42 1.564.73.315.304.472.7.472 1.187ZM53.218 32.385c-.453 0-.874-.064-1.265-.191a2.969 2.969 0 0 1-1.012-.6 2.847 2.847 0 0 1-.679-.994c-.16-.4-.241-.867-.241-1.402 0-.527.08-.979.241-1.354.169-.384.387-.695.656-.935a2.46 2.46 0 0 1 .92-.54c.345-.12.697-.179 1.058-.179.406 0 .774.064 1.104.192.337.127.624.303.862.527.245.224.433.491.564.803.138.311.207.65.207 1.018 0 .272-.073.48-.219.624-.146.143-.349.235-.61.275l-2.84.444c.084.263.257.463.518.599.26.127.56.191.897.191.314 0 .61-.04.885-.12a2.9 2.9 0 0 0 .69-.299c.123.08.226.192.31.336a.886.886 0 0 1 .127.455c0 .36-.16.627-.483.803a2.487 2.487 0 0 1-.828.275 5.604 5.604 0 0 1-.862.072Zm-.322-4.71c-.184 0-.345.033-.483.097a.941.941 0 0 0-.322.251 1.03 1.03 0 0 0-.196.336c-.038.12-.061.244-.069.371l1.967-.335c-.023-.16-.108-.32-.253-.48-.146-.16-.36-.24-.644-.24Z" fill="#fff"/>
    </symbol>
    <symbol id="account-icon-gray" viewBox="0 0 64 64">
        <path d="M32 5.333C17.28 5.333 5.333 17.28 5.333 32 5.333 46.72 17.28 58.667 32 58.667c14.72 0 26.667-11.947 26.667-26.667C58.667 17.28 46.72 5.333 32 5.333Zm0 8c4.427 0 8 3.574 8 8 0 4.427-3.573 8-8 8a7.99 7.99 0 0 1-8-8c0-4.426 3.573-8 8-8ZM32 51.2c-6.667 0-12.56-3.413-16-8.587.08-5.306 10.667-8.213 16-8.213 5.307 0 15.92 2.907 16 8.213-3.44 5.174-9.333 8.587-16 8.587Z" fill="#BFBFBF"/>
    </symbol>
</svg>